{"asset":{"version":"2.0","generator":"Blockbench 4.9.4 glTF exporter"},"scenes":[{"nodes":[1],"name":"blockbench_export"}],"scene":0,"nodes":[{"name":"sphere","mesh":0},{"children":[0]}],"bufferViews":[{"buffer":0,"byteOffset":0,"byteLength":5112,"target":34962,"byteStride":12},{"buffer":0,"byteOffset":5112,"byteLength":5112,"target":34962,"byteStride":12},{"buffer":0,"byteOffset":10224,"byteLength":3408,"target":34962,"byteStride":8},{"buffer":0,"byteOffset":13632,"byteLength":1200,"target":34963}],"buffers":[{"byteLength":14832,"uri":"data:application/octet-stream;base64,"}],"accessors":[{"bufferView":0,"componentType":5126,"count":426,"max":[0.23325318098068237,0.38749998807907104,0.3957531750202179],"min":[-0.23325318098068237,5.204170427930421e-18,-0.38737353682518005],"type":"VEC3"},{"bufferView":1,"componentType":5126,"count":426,"max":[1,1,1],"min":[-1,-0.9998389482498169,-1],"type":"VEC3"},{"bufferView":2,"componentType":5126,"count":426,"max":[0.75,0.71875],"min":[0,0],"type":"VEC2"},{"bufferView":3,"componentType":5123,"count":600,"max":[425],"min":[0],"type":"SCALAR"}],"materials":[{"pbrMetallicRoughness":{"metallicFactor":0,"roughnessFactor":1,"baseColorTexture":{"index":0}},"alphaMode":"MASK","alphaCutoff":0.05,"doubleSided":true}],"textures":[{"sampler":0,"source":0}],"samplers":[{"magFilter":9728,"minFilter":9728,"wrapS":33071,"wrapT":33071}],"images":[{"mimeType":"image/png","uri":"data:image/png;base64,"}],"meshes":[{"primitives":[{"mode":4,"attributes":{"POSITION":0,"NORMAL":1,"TEXCOORD_0":2},"indices":3,"material":0}]}]}