{"asset":{"version":"2.0","generator":"Blockbench 4.9.4 glTF exporter"},"scenes":[{"nodes":[13],"name":"blockbench_export"}],"scene":0,"nodes":[{"translation":[-2.577303450022685e-17,0.5,-1.784287003861859e-17],"name":"torso","mesh":0},{"translation":[-3.9650822308041306e-17,0.2455357142857144,-2.3790493384824782e-17],"name":"head","mesh":1},{"translation":[0,0.75,0],"name":"neck","children":[1]},{"rotation":[4.3297814461457277e-17,4.329781510664509e-17,0.7071067759181907,0.7071067864549043],"translation":[-0.19375000977888826,-0.018750006519259177,-1.5862562384829873e-15],"name":"arm_r","mesh":2},{"translation":[-0.24375000000000005,0.675,0],"name":"shoulder_r","children":[3]},{"translation":[0,-0.1875,0],"name":"leg_l","mesh":3},{"translation":[0.125,-0.0625,0],"name":"hip_l","children":[5]},{"translation":[0,-0.1875,0],"name":"leg_r","mesh":4},{"translation":[-0.125,-0.0625,0],"name":"hip_r","children":[7]},{"translation":[0,0.3125,0],"name":"pelvis","children":[6,8]},{"rotation":[0,0,-0.7071067811865475,0.7071067811865476],"translation":[0.19374999999999973,-0.018750000000000044,-4.8572257327350596e-18],"name":"arm_l","mesh":5},{"translation":[0.24375000000000005,0.6749999999999999,0],"name":"shoulder_l","children":[10]},{"translation":[0,0.125,0],"name":"villager","children":[0,2,4,9,11]},{"children":[12]}],"bufferViews":[{"buffer":0,"byteOffset":0,"byteLength":720,"target":34962,"byteStride":12},{"buffer":0,"byteOffset":720,"byteLength":720,"target":34962,"byteStride":12},{"buffer":0,"byteOffset":1440,"byteLength":480,"target":34962,"byteStride":8},{"buffer":0,"byteOffset":1920,"byteLength":144,"target":34963},{"buffer":0,"byteOffset":2064,"byteLength":720,"target":34962,"byteStride":12},{"buffer":0,"byteOffset":2784,"byteLength":720,"target":34962,"byteStride":12},{"buffer":0,"byteOffset":3504,"byteLength":480,"target":34962,"byteStride":8},{"buffer":0,"byteOffset":3984,"byteLength":144,"target":34963},{"buffer":0,"byteOffset":4128,"byteLength":480,"target":34962,"byteStride":12},{"buffer":0,"byteOffset":4608,"byteLength":480,"target":34962,"byteStride":12},{"buffer":0,"byteOffset":5088,"byteLength":320,"target":34962,"byteStride":8},{"buffer":0,"byteOffset":5408,"byteLength":96,"target":34963},{"buffer":0,"byteOffset":5504,"byteLength":480,"target":34962,"byteStride":12},{"buffer":0,"byteOffset":5984,"byteLength":480,"target":34962,"byteStride":12},{"buffer":0,"byteOffset":6464,"byteLength":320,"target":34962,"byteStride":8},{"buffer":0,"byteOffset":6784,"byteLength":96,"target":34963},{"buffer":0,"byteOffset":6880,"byteLength":480,"target":34962,"byteStride":12},{"buffer":0,"byteOffset":7360,"byteLength":480,"target":34962,"byteStride":12},{"buffer":0,"byteOffset":7840,"byteLength":320,"target":34962,"byteStride":8},{"buffer":0,"byteOffset":8160,"byteLength":96,"target":34963},{"buffer":0,"byteOffset":8256,"byteLength":480,"target":34962,"byteStride":12},{"buffer":0,"byteOffset":8736,"byteLength":480,"target":34962,"byteStride":12},{"buffer":0,"byteOffset":9216,"byteLength":320,"target":34962,"byteStride":8},{"buffer":0,"byteOffset":9536,"byteLength":96,"target":34963},{"buffer":0,"byteOffset":9632,"byteLength":12},{"buffer":0,"byteOffset":9644,"byteLength":48},{"buffer":0,"byteOffset":9692,"byteLength":112},{"buffer":0,"byteOffset":9804,"byteLength":448},{"buffer":0,"byteOffset":10252,"byteLength":108},{"buffer":0,"byteOffset":10360,"byteLength":432},{"buffer":0,"byteOffset":10792,"byteLength":104},{"buffer":0,"byteOffset":10896,"byteLength":416},{"buffer":0,"byteOffset":11312,"byteLength":104},{"buffer":0,"byteOffset":11416,"byteLength":416},{"buffer":0,"byteOffset":11832,"byteLength":104},{"buffer":0,"byteOffset":11936,"byteLength":416},{"buffer":0,"byteOffset":12352,"byteLength":104},{"buffer":0,"byteOffset":12456,"byteLength":416},{"buffer":0,"byteOffset":12872,"byteLength":68},{"buffer":0,"byteOffset":12940,"byteLength":272},{"buffer":0,"byteOffset":13212,"byteLength":64},{"buffer":0,"byteOffset":13276,"byteLength":256},{"buffer":0,"byteOffset":13532,"byteLength":64},{"buffer":0,"byteOffset":13596,"byteLength":256},{"buffer":0,"byteOffset":13852,"byteLength":148},{"buffer":0,"byteOffset":14000,"byteLength":592},{"buffer":0,"byteOffset":14592,"byteLength":152},{"buffer":0,"byteOffset":14744,"byteLength":608},{"buffer":0,"byteOffset":15352,"byteLength":152},{"buffer":0,"byteOffset":15504,"byteLength":608},{"buffer":0,"byteOffset":16112,"byteLength":152},{"buffer":0,"byteOffset":16264,"byteLength":608},{"buffer":0,"byteOffset":16872,"byteLength":152},{"buffer":0,"byteOffset":17024,"byteLength":608}],"buffers":[{"byteLength":17632,"uri":"data:application/octet-stream;base64,"}],"accessors":[{"bufferView":0,"componentType":5126,"count":60,"max":[0.3080126941204071,0.3125,0.25],"min":[-0.3080126941204071,-0.3125,-0.25],"type":"VEC3"},{"bufferView":1,"componentType":5126,"count":60,"max":[0.8483453989028931,1,0.9950371980667114],"min":[-0.8483453989028931,-1,-0.9950371980667114],"type":"VEC3"},{"bufferView":2,"componentType":5126,"count":60,"max":[0.90625,0.71875],"min":[0,0],"type":"VEC2"},{"bufferView":3,"componentType":5123,"count":72,"max":[59],"min":[0],"type":"SCALAR"},{"bufferView":4,"componentType":5126,"count":60,"max":[0.3375000059604645,0.3169642984867096,0.29975953698158264],"min":[-0.3375000059604645,-0.3705357015132904,-0.29975953698158264],"type":"VEC3"},{"bufferView":5,"componentType":5126,"count":60,"max":[0.894283652305603,0.9604529738426208,1],"min":[-0.894283652305603,-0.8955050110816956,-1],"type":"VEC3"},{"bufferView":6,"componentType":5126,"count":60,"max":[0.78125,0.84375],"min":[0,0],"type":"VEC2"},{"bufferView":7,"componentType":5123,"count":72,"max":[59],"min":[0],"type":"SCALAR"},{"bufferView":8,"componentType":5126,"count":40,"max":[0.0625,0.21875,0.0625],"min":[-0.0625,-0.21875,-0.0625],"type":"VEC3"},{"bufferView":9,"componentType":5126,"count":40,"max":[1,1,1],"min":[-1,-1,-1],"type":"VEC3"},{"bufferView":10,"componentType":5126,"count":40,"max":[0.5,0.9375],"min":[0,0],"type":"VEC2"},{"bufferView":11,"componentType":5123,"count":48,"max":[39],"min":[0],"type":"SCALAR"},{"bufferView":12,"componentType":5126,"count":40,"max":[0.0625,0.1875,0.0625],"min":[-0.0625,-0.1875,-0.0625],"type":"VEC3"},{"bufferView":13,"componentType":5126,"count":40,"max":[1,1,1],"min":[-1,-1,-1],"type":"VEC3"},{"bufferView":14,"componentType":5126,"count":40,"max":[0.5,0.8125],"min":[0,0],"type":"VEC2"},{"bufferView":15,"componentType":5123,"count":48,"max":[39],"min":[0],"type":"SCALAR"},{"bufferView":16,"componentType":5126,"count":40,"max":[0.0625,0.1875,0.0625],"min":[-0.0625,-0.1875,-0.0625],"type":"VEC3"},{"bufferView":17,"componentType":5126,"count":40,"max":[1,1,1],"min":[-1,-1,-1],"type":"VEC3"},{"bufferView":18,"componentType":5126,"count":40,"max":[0.5,0.8125],"min":[0,0],"type":"VEC2"},{"bufferView":19,"componentType":5123,"count":48,"max":[39],"min":[0],"type":"SCALAR"},{"bufferView":20,"componentType":5126,"count":40,"max":[0.0625,0.21875,0.0625],"min":[-0.0625,-0.21875,-0.0625],"type":"VEC3"},{"bufferView":21,"componentType":5126,"count":40,"max":[1,1,1],"min":[-1,-1,-1],"type":"VEC3"},{"bufferView":22,"componentType":5126,"count":40,"max":[0.5,0.9375],"min":[0,0],"type":"VEC2"},{"bufferView":23,"componentType":5123,"count":48,"max":[39],"min":[0],"type":"SCALAR"},{"bufferView":24,"componentType":5126,"count":3,"max":[1.5],"min":[0],"type":"SCALAR"},{"bufferView":25,"componentType":5126,"count":3,"max":[0,0,0.4617486000061035,0.9600498676300049],"min":[0,0,0.2798290252685547,0.8870108127593994],"type":"VEC4"},{"bufferView":26,"componentType":5126,"count":28,"max":[1.5],"min":[0],"type":"SCALAR"},{"bufferView":27,"componentType":5126,"count":28,"max":[0,0,-0.2798290252685547,0.9600498676300049],"min":[0,0,-0.4617486000061035,0.8870108127593994],"type":"VEC4"},{"bufferView":28,"componentType":5126,"count":27,"max":[1.5],"min":[0],"type":"SCALAR"},{"bufferView":29,"componentType":5126,"count":27,"max":[0,0,0.024522297084331512,1],"min":[0,0,0,0.9996992945671082],"type":"VEC4"},{"bufferView":30,"componentType":5126,"count":26,"max":[1.5],"min":[0],"type":"SCALAR"},{"bufferView":31,"componentType":5126,"count":26,"max":[0,0,0,1],"min":[0,0,-0.09783244878053665,0.995202898979187],"type":"VEC4"},{"bufferView":32,"componentType":5126,"count":26,"max":[1.5],"min":[0],"type":"SCALAR"},{"bufferView":33,"componentType":5126,"count":26,"max":[0,0,0.4617486000061035,0.9279989004135132],"min":[0,0,0.37258291244506836,0.8870108127593994],"type":"VEC4"},{"bufferView":34,"componentType":5126,"count":26,"max":[1.4583333730697632],"min":[0],"type":"SCALAR"},{"bufferView":35,"componentType":5126,"count":26,"max":[0.5137453675270081,0,0,1],"min":[0,0,0,0.8579427003860474],"type":"VEC4"},{"bufferView":36,"componentType":5126,"count":26,"max":[1.5],"min":[0],"type":"SCALAR"},{"bufferView":37,"componentType":5126,"count":26,"max":[0,0,0.4226182699203491,1],"min":[0,0,-0.4617486000061035,0.8870108127593994],"type":"VEC4"},{"bufferView":38,"componentType":5126,"count":17,"max":[1],"min":[0],"type":"SCALAR"},{"bufferView":39,"componentType":5126,"count":17,"max":[0.04361938685178757,0,0,1],"min":[0,0,0,0.9990482330322266],"type":"VEC4"},{"bufferView":40,"componentType":5126,"count":16,"max":[1],"min":[0],"type":"SCALAR"},{"bufferView":41,"componentType":5126,"count":16,"max":[0.09998886287212372,0.7929255962371826,0.08390061557292938,0.6414113640785217],"min":[-0.05010170489549637,0.7594908475875854,-0.042040321975946426,0.6083419919013977],"type":"VEC4"},{"bufferView":42,"componentType":5126,"count":16,"max":[1],"min":[0],"type":"SCALAR"},{"bufferView":43,"componentType":5126,"count":16,"max":[0.09998886287212372,-0.7594908475875854,0.042040321975946426,0.6414113640785217],"min":[-0.05010170489549637,-0.7929255962371826,-0.08390061557292938,0.6083419919013977],"type":"VEC4"},{"bufferView":44,"componentType":5126,"count":37,"max":[2],"min":[0],"type":"SCALAR"},{"bufferView":45,"componentType":5126,"count":37,"max":[0,0,0.02181488461792469,1],"min":[0,0,-0.02181488461792469,0.9997619986534119],"type":"VEC4"},{"bufferView":46,"componentType":5126,"count":38,"max":[2],"min":[0],"type":"SCALAR"},{"bufferView":47,"componentType":5126,"count":38,"max":[0.057730257511138916,0.11786266416311264,0.46195462346076965,0.8933131098747253],"min":[-0.06146989017724991,-0.11706538498401642,0.4385048449039459,0.8787892460823059],"type":"VEC4"},{"bufferView":48,"componentType":5126,"count":38,"max":[2],"min":[0],"type":"SCALAR"},{"bufferView":49,"componentType":5126,"count":38,"max":[0.30070579051971436,0,0,1],"min":[-0.30609533190727234,0,0,0.9520008563995361],"type":"VEC4"},{"bufferView":50,"componentType":5126,"count":38,"max":[2],"min":[0],"type":"SCALAR"},{"bufferView":51,"componentType":5126,"count":38,"max":[0.30609533190727234,0,0,1],"min":[-0.30070579051971436,0,0,0.9520008563995361],"type":"VEC4"},{"bufferView":52,"componentType":5126,"count":38,"max":[2],"min":[0],"type":"SCALAR"},{"bufferView":53,"componentType":5126,"count":38,"max":[0.061379846185445786,0.11790958046913147,-0.4576508402824402,0.8870108127593994],"min":[-0.0602702870965004,-0.11577814817428589,-0.4617486000061035,0.8791390657424927],"type":"VEC4"}],"materials":[{"pbrMetallicRoughness":{"metallicFactor":0,"roughnessFactor":1,"baseColorTexture":{"index":0}},"alphaMode":"MASK","alphaCutoff":0.05,"doubleSided":true},{"pbrMetallicRoughness":{"metallicFactor":0,"roughnessFactor":1,"baseColorTexture":{"index":1}},"alphaMode":"MASK","alphaCutoff":0.05,"doubleSided":true},{"pbrMetallicRoughness":{"metallicFactor":0,"roughnessFactor":1,"baseColorTexture":{"index":2}},"alphaMode":"MASK","alphaCutoff":0.05,"doubleSided":true},{"pbrMetallicRoughness":{"metallicFactor":0,"roughnessFactor":1,"baseColorTexture":{"index":3}},"alphaMode":"MASK","alphaCutoff":0.05,"doubleSided":true},{"pbrMetallicRoughness":{"metallicFactor":0,"roughnessFactor":1,"baseColorTexture":{"index":4}},"alphaMode":"MASK","alphaCutoff":0.05,"doubleSided":true},{"pbrMetallicRoughness":{"metallicFactor":0,"roughnessFactor":1,"baseColorTexture":{"index":5}},"alphaMode":"MASK","alphaCutoff":0.05,"doubleSided":true}],"textures":[{"sampler":0,"source":0},{"sampler":1,"source":1},{"sampler":2,"source":2},{"sampler":3,"source":3},{"sampler":4,"source":4},{"sampler":5,"source":5}],"samplers":[{"magFilter":9728,"minFilter":9728,"wrapS":33071,"wrapT":33071},{"magFilter":9728,"minFilter":9728,"wrapS":33071,"wrapT":33071},{"magFilter":9728,"minFilter":9728,"wrapS":33071,"wrapT":33071},{"magFilter":9728,"minFilter":9728,"wrapS":33071,"wrapT":33071},{"magFilter":9728,"minFilter":9728,"wrapS":33071,"wrapT":33071},{"magFilter":9728,"minFilter":9728,"wrapS":33071,"wrapT":33071}],"images":[{"mimeType":"image/png","uri":"data:image/png;base64,"},{"mimeType":"image/png","uri":"data:image/png;base64,"},{"mimeType":"image/png","uri":"data:image/png;base64,"},{"mimeType":"image/png","uri":"data:image/png;base64,"},{"mimeType":"image/png","uri":"data:image/png;base64,"},{"mimeType":"image/png","uri":"data:image/png;base64,"}],"meshes":[{"primitives":[{"mode":4,"attributes":{"POSITION":0,"NORMAL":1,"TEXCOORD_0":2},"indices":3,"material":0}]},{"primitives":[{"mode":4,"attributes":{"POSITION":4,"NORMAL":5,"TEXCOORD_0":6},"indices":7,"material":1}]},{"primitives":[{"mode":4,"attributes":{"POSITION":8,"NORMAL":9,"TEXCOORD_0":10},"indices":11,"material":2}]},{"primitives":[{"mode":4,"attributes":{"POSITION":12,"NORMAL":13,"TEXCOORD_0":14},"indices":15,"material":3}]},{"primitives":[{"mode":4,"attributes":{"POSITION":16,"NORMAL":17,"TEXCOORD_0":18},"indices":19,"material":4}]},{"primitives":[{"mode":4,"attributes":{"POSITION":20,"NORMAL":21,"TEXCOORD_0":22},"indices":23,"material":5}]}],"animations":[{"name":"idle","samplers":[{"input":24,"output":25,"interpolation":"LINEAR"},{"input":26,"output":27,"interpolation":"LINEAR"}],"channels":[{"sampler":0,"target":{"node":4,"path":"rotation"}},{"sampler":1,"target":{"node":11,"path":"rotation"}}]},{"name":"wave","samplers":[{"input":28,"output":29,"interpolation":"LINEAR"},{"input":30,"output":31,"interpolation":"LINEAR"},{"input":32,"output":33,"interpolation":"LINEAR"},{"input":34,"output":35,"interpolation":"LINEAR"},{"input":36,"output":37,"interpolation":"LINEAR"}],"channels":[{"sampler":0,"target":{"node":12,"path":"rotation"}},{"sampler":1,"target":{"node":2,"path":"rotation"}},{"sampler":2,"target":{"node":4,"path":"rotation"}},{"sampler":3,"target":{"node":6,"path":"rotation"}},{"sampler":4,"target":{"node":11,"path":"rotation"}}]},{"name":"sip","samplers":[{"input":38,"output":39,"interpolation":"LINEAR"},{"input":40,"output":41,"interpolation":"LINEAR"},{"input":42,"output":43,"interpolation":"LINEAR"}],"channels":[{"sampler":0,"target":{"node":2,"path":"rotation"}},{"sampler":1,"target":{"node":4,"path":"rotation"}},{"sampler":2,"target":{"node":11,"path":"rotation"}}]},{"name":"walk","samplers":[{"input":44,"output":45,"interpolation":"LINEAR"},{"input":46,"output":47,"interpolation":"LINEAR"},{"input":48,"output":49,"interpolation":"LINEAR"},{"input":50,"output":51,"interpolation":"LINEAR"},{"input":52,"output":53,"interpolation":"LINEAR"}],"channels":[{"sampler":0,"target":{"node":12,"path":"rotation"}},{"sampler":1,"target":{"node":4,"path":"rotation"}},{"sampler":2,"target":{"node":6,"path":"rotation"}},{"sampler":3,"target":{"node":8,"path":"rotation"}},{"sampler":4,"target":{"node":11,"path":"rotation"}}]}]}